# https://github.com/mikedh/trimesh
mtllib material.mtl

o ID133
usemtl material_0
v -36.07661311 0.00043309 22.35699798
v -37.57146286 -3.64108477 19.37231034
v -38.27999001 -8.42958952 23.32500669
v -33.53670539 -8.75705440 30.54712467
v -36.79554268 -3.10088336 16.40434752
v -39.35126937 -9.08352434 18.93827440
v -32.56514753 0.00033967 29.24346501
v -36.10398538 0.00043309 15.59161789
v -37.11266825 -3.24438893 16.55688306
v -39.45338543 -9.08595602 18.85204042
v -28.11930479 0.00024624 32.79805872
v -38.27952224 8.43064201 23.32500669
v -36.79538676 3.10181172 16.40434752
v -36.48511075 -3.63996383 11.26673215
v -39.48742535 -8.72516773 17.50396439
v -28.37903509 8.34462614 34.67640614
v -28.37950286 -8.34416487 34.67640614
v -39.35080159 9.08454620 18.93827440
v -33.53627103 8.75782753 30.54712467
v -37.57127724 3.64201336 19.37231034
v -35.53205229 0.00043309 9.39153664
v -36.79292537 -3.84544335 11.30276569
v -22.86138768 9.09887182 38.11521436
v -22.92678710 0.00012167 35.79103266
v -37.11248262 3.24531729 16.55688306
v -36.48492513 3.64086110 11.26673215
v -34.64108912 -5.98790669 5.17148080
v -38.97736852 -6.27815654 11.78622616
v -22.86188515 -9.09869083 38.11521436
v -39.48695757 8.72624528 17.50396439
v -36.79270633 3.84634061 11.30276569
v -34.00263172 0.00040195 6.22099005
v -34.98113567 -6.22842201 5.08951249
v -14.99647981 -0.00009633 39.23426618
v -14.61289675 -9.09781839 41.55374042
v -39.45288795 9.08703451 18.85204042
v -38.97705667 6.27917887 11.78622616
v -34.98082382 6.22928796 5.08951249
v -34.64077727 5.98871045 5.17148080
v -31.90875132 -7.70343449 2.46374575
v -14.61239742 9.09762534 41.55374042
v -30.14703955 0.00030852 4.60745534
v -32.00027933 -7.88702046 2.15163578
v -5.09166388 -0.00037662 42.95756336
v -4.36155411 9.78703218 44.99566714
v -31.99987467 7.88773140 2.15163578
v -31.90834666 7.70411387 2.46374575
v -31.61710094 -8.01635658 2.42301219
v -4.36208314 -9.78781645 44.99566714
v -27.21962467 0.00021509 4.84507398
v -27.03460474 -8.44777613 2.76044143
v 5.98673494 9.14465160 45.97454234
v 5.66294409 -0.00062576 44.00735476
v -31.61666286 8.01706381 2.42301219
v -26.78343919 -8.17222594 2.84346781
v 5.98623665 -9.14596489 45.97454234
v -22.88131824 -6.16361381 7.25452441
v -27.03417038 8.44820400 2.76044143
v -26.57686819 -8.65148386 2.82565522
v 16.29531692 8.75574110 45.67924999
v 15.48526401 -0.00090604 43.70445921
v -21.86061615 0.00009052 7.77373627
v -26.78303452 8.17259348 2.84346781
v 16.29485008 -8.75758436 45.67924999
v -22.11897653 -8.68026039 11.30407249
v -26.57637072 8.65191080 2.82565522
v 23.12102145 6.94728337 44.31890787
v 21.83532659 -0.00109290 42.67755910
v -22.88100639 6.16382589 7.25452441
v -19.66331104 0.00002824 10.88866216
v 23.12064835 -6.94950020 44.31890787
v -18.92884093 -0.00000290 17.03265123
v 31.74359885 5.31964023 41.56458093
v 30.44345307 -0.00131090 40.26452982
v -22.11854031 8.68040332 11.30407249
v -21.11393748 9.35399304 16.71848452
v -22.17609151 -9.01273622 11.61076593
v 31.74335011 -5.32232437 41.56458093
v -16.83651793 5.57712818 19.06860546
v -21.11440525 -9.35387424 16.71848452
v 38.26849611 4.27601669 38.15133699
v 36.99102443 -0.00146661 37.51266056
v -22.17562373 9.01291442 11.61076593
v -18.10081765 -0.00000290 21.32673434
v -16.83682792 -5.57728967 19.06860546
v 38.26828078 -4.27901221 38.15133699
v -14.65758599 -0.00009633 24.76996785
v 44.44378527 4.28900348 33.99450134
v 42.84725381 -0.00162233 33.03917082
v -12.42228528 -5.68616480 23.88221229
v -12.42197529 5.68578520 23.88221229
v 44.44356994 -4.29231039 33.99450134
v -7.82213243 -4.89448598 27.50464081
v -10.52298543 -0.00022090 28.55209333
v 48.20831721 3.25967423 29.19541040
v 47.65961324 -0.00174690 27.87430198
v -7.64583410 4.65602043 27.90525682
v 48.20813158 -3.26319902 29.19541040
v -7.64605221 -4.65661767 27.90525682
v -7.82185214 4.89385718 27.50464081
v -6.04948920 -0.00031433 31.31753550
v 51.07089326 2.59645886 23.84275582
v 50.42508882 -0.00184032 23.04833625
v -3.35449174 -2.39216850 29.20138753
v -3.35436738 2.39132182 29.20138753
v 51.07073733 -2.60017066 23.84275582
v 5.66291294 -2.32704914 34.76076902
v 5.66300639 2.32573515 34.76076902
v 50.46523209 4.99899475 16.23872912
v 49.73372085 -0.00177804 15.82297725
v 5.66509294 -0.00062576 35.66506007
v 50.46494994 -5.00267569 16.23872912
v 13.77210247 -0.00084376 35.34447816
v 13.57976521 2.66441225 34.40832643
v 50.35258738 5.22222605 16.03244028
v 45.93804474 -0.00171575 10.30563983
v 13.57964084 -2.66613090 34.40832643
v 45.80500355 -3.06341865 9.77994966
v 19.92973405 2.89396525 32.61469086
v 20.46619883 -0.00103061 33.37806279
v 45.80512977 3.06001823 9.77994966
v 50.35227553 -5.22590654 16.03244028
v 37.54278008 -3.49409130 7.24340547
v 19.92954749 -2.89602638 32.61469086
v 37.30061362 -0.00146661 7.36084673
v 27.35266401 -0.00121747 29.59593731
v 26.32233725 -2.84526396 28.90456563
v 37.54296570 3.49112687 7.24340547
v 32.49946410 -0.00134204 6.92911254
v 26.32249318 2.84289121 28.90456563
v 32.16514780 3.53407262 6.86240631
v 32.16496031 -3.53678785 6.86240631
v 31.48966191 -2.50649335 24.76996785
v 31.82615931 -0.00134204 25.80026120
v 34.57802300 -0.00140433 12.71863941
v 35.06590506 -3.76630976 12.95199238
v 31.48978628 2.50387163 24.76996785
v 35.06609255 3.76343884 12.95199238
v 33.90263178 -2.84545075 19.60510273
v 34.93049715 -0.00143547 19.60510273
v 33.90275615 2.84267310 19.60510273
vn -0.96511313 -0.01674853 0.26129701
vn -0.92542196 0.37884313 0.00849056
vn -0.89052286 0.28241709 0.35666458
vn -0.73843946 0.20765390 0.64155048
vn -0.79451676 0.60334586 -0.06867972
vn -0.80427565 0.21895939 0.55244680
vn -0.76991049 -0.01745136 0.63791322
vn -0.99874399 0.00221672 -0.05005531
vn -0.69694051 0.71555085 -0.04754911
vn -0.86112443 0.25564233 0.43944478
vn -0.56943887 -0.00254559 0.82202974
vn -0.90555939 -0.24810382 0.34410272
vn -0.79525867 -0.60184429 -0.07312387
vn -0.82940329 0.49482195 -0.25930951
vn -0.91982772 0.39004382 0.04222311
vn -0.55520839 -0.19675938 0.80810234
vn -0.55474048 0.20129107 0.80730720
vn -0.85533263 -0.47543843 0.20582611
vn -0.72784034 -0.17924360 0.66190647
vn -0.92157849 -0.38792220 -0.01447225
vn -0.95287975 0.03806882 -0.30095007
vn -0.68590174 0.68595771 -0.24290085
vn -0.43185087 -0.21491439 0.87596611
vn -0.45280178 -0.00268084 0.89160718
vn -0.67241071 -0.74003138 -0.01474405
vn -0.82198797 -0.50325053 -0.26659835
vn -0.58469040 0.49569756 -0.64220018
vn -0.74368840 0.66851646 0.00364826
vn -0.42917818 0.22066400 0.87585015
vn -0.92432683 -0.36787784 0.10141899
vn -0.65278182 -0.70436220 -0.27883648
vn -0.72240730 0.04242374 -0.69016514
vn -0.42111199 0.71712868 -0.55532977
vn -0.36974355 0.00293034 0.92912923
vn -0.35033956 0.20725670 0.91340399
vn -0.23961766 -0.93633057 0.25664848
vn -0.81445133 -0.55839953 -0.15766738
vn -0.43278198 -0.71377177 -0.55066289
vn -0.54047536 -0.53898145 -0.64605369
vn 0.06105172 0.58330088 -0.80995850
vn -0.33265392 -0.21976785 0.91708422
vn -0.14676729 0.01553532 -0.98904905
vn 0.30730177 0.77811693 -0.54781353
vn -0.23047235 0.00650757 0.97305711
vn -0.20703851 -0.19556570 0.95858704
vn 0.31302929 -0.76598498 -0.56149770
vn 0.07157126 -0.59573567 -0.79998535
vn 0.24153424 0.35803753 -0.90192590
vn -0.19459393 0.18859778 0.96258199
vn 0.32232873 -0.03820420 -0.94585656
vn 0.11964571 0.19774613 -0.97292414
vn -0.04007913 -0.20629572 0.97766852
vn -0.03766210 -0.00260047 0.99928715
vn 0.24023148 -0.35203048 -0.90463439
vn 0.25452720 0.20856055 -0.94430842
vn -0.04020620 0.21130244 0.97659344
vn 0.82701174 -0.00397783 -0.56217058
vn 0.12113607 -0.19763374 -0.97276254
vn 0.19168244 0.11882893 -0.97423690
vn 0.07553458 -0.22325159 0.97182985
vn 0.08809110 -0.00427643 0.99610324
vn 0.72287945 -0.06856275 -0.68756414
vn 0.23374040 -0.18061402 -0.95537637
vn 0.07633897 0.23131888 0.96987831
vn 0.94790510 -0.24852495 -0.19927687
vn 0.19166222 -0.11884269 -0.97423920
vn 0.19110570 -0.25221397 0.94861305
vn 0.20515961 -0.00577040 0.97871152
vn 0.83485839 0.15062291 -0.52945652
vn 0.94078403 -0.03272915 -0.33742290
vn 0.18604731 0.26185942 0.94700372
vn 0.94849210 -0.00831986 -0.31669152
vn 0.32741805 -0.29441128 0.89784153
vn 0.32658847 0.00123492 0.94516583
vn 0.92353247 0.29171853 -0.24897405
vn 0.88681882 0.22567312 -0.40326669
vn 0.95544105 -0.24712007 -0.16144369
vn 0.31391756 0.28699585 0.90503544
vn 0.71049601 -0.16096191 -0.68504502
vn 0.88286360 -0.19188752 -0.42863860
vn 0.46840550 -0.27740785 0.83883322
vn 0.48806570 0.00226435 0.87280396
vn 0.91113271 0.35283165 -0.21294838
vn 0.86761522 -0.00786181 -0.49717403
vn 0.71513513 0.16793884 -0.67851182
vn 0.49522557 0.28801977 0.81963178
vn 0.68761966 0.00337733 -0.72606322
vn 0.62246842 -0.36824670 0.69059933
vn 0.66039665 -0.00846132 0.75086928
vn 0.60698917 0.35978810 -0.70860191
vn 0.62994308 -0.38765519 -0.67297487
vn 0.60501885 0.37712166 0.70123566
vn 0.61268819 0.43959541 -0.65678693
vn 0.56756816 0.05205346 -0.82167927
vn 0.73596341 -0.36143607 0.57246994
vn 0.81443685 -0.00020637 0.58025217
vn 0.37313405 -0.52584001 -0.76437116
vn 0.74320203 0.35649443 0.56618236
vn 0.45708617 0.39323009 -0.79777335
vn 0.33370229 -0.73895022 -0.58531645
vn 0.40558912 0.11500503 -0.90679177
vn 0.93624594 -0.28996073 0.19840946
vn 0.98784752 0.00988766 0.15511126
vn 0.29066048 0.70166829 -0.65052141
vn 0.14558324 -0.74253854 -0.65379051
vn 0.93352959 0.28443676 0.21821603
vn 0.16006485 0.40558957 -0.89993130
vn 0.16423222 -0.40819891 -0.89799857
vn 0.91694008 -0.10884865 -0.38389173
vn 0.93070624 0.00303570 -0.36575496
vn 0.15276698 0.00172262 -0.98826074
vn 0.90800052 0.10706022 -0.40505945
vn -0.15698908 0.00458203 -0.98758971
vn -0.14212154 -0.33989452 -0.92966294
vn 0.82777497 -0.07391001 -0.55617075
vn 0.61867791 -0.00531296 -0.78562676
vn -0.14730428 0.33109668 -0.93202813
vn 0.58074617 0.11363618 -0.80611457
vn -0.36141218 -0.31280502 -0.87837023
vn -0.38917662 0.00666426 -0.92113905
vn 0.59288326 -0.09965102 -0.79909894
vn 0.82112487 0.10412296 -0.56117053
vn 0.20205913 0.05217474 -0.97798257
vn -0.36428316 0.30000548 -0.88164306
vn 0.19381339 -0.00164080 -0.98103704
vn -0.57684529 0.00159444 -0.81685187
vn -0.51830498 0.36701017 -0.77243995
vn 0.18394206 -0.04577998 -0.98187041
vn -0.78888299 -0.02357814 -0.61409095
vn -0.52737927 -0.37441171 -0.76268406
vn -0.82823251 -0.04126445 -0.55886327
vn -0.84691627 0.09001812 -0.52405112
vn -0.76103151 0.33331577 -0.55653539
vn -0.76946819 -0.00061284 -0.63868485
vn -0.98241801 0.01134221 0.18634968
vn -0.98977571 -0.09235300 0.10869670
vn -0.75635877 -0.33551642 -0.56156046
vn -0.97763848 0.04744268 0.20487119
vn -0.93975471 0.25658317 -0.22588971
vn -0.97019603 0.04194788 -0.23866301
vn -0.89240829 -0.32247875 -0.31561827
f 1//1 2//2 3//3
f 1//1 3//3 4//4
f 1//1 5//5 2//2
f 2//2 6//6 3//3
f 1//1 4//4 7//7
f 8//8 5//5 1//1
f 2//2 5//5 9//9
f 2//2 10//10 6//6
f 11//11 7//7 4//4
f 12//12 1//1 7//7
f 13//13 8//8 1//1
f 8//8 14//14 5//5
f 9//9 15//15 2//2
f 9//9 5//5 14//14
f 2//2 15//15 10//10
f 11//11 16//16 7//7
f 11//11 4//4 17//17
f 18//18 1//1 12//12
f 19//19 12//12 7//7
f 20//20 13//13 1//1
f 13//13 21//21 8//8
f 21//21 14//14 8//8
f 9//9 22//22 15//15
f 9//9 14//14 22//22
f 23//23 16//16 11//11
f 16//16 19//19 7//7
f 24//24 11//11 17//17
f 18//18 20//20 1//1
f 20//20 25//25 13//13
f 26//26 21//21 13//13
f 21//21 27//27 14//14
f 22//22 28//28 15//15
f 22//22 14//14 27//27
f 23//23 11//11 24//24
f 29//29 24//24 17//17
f 18//18 30//30 20//20
f 30//30 25//25 20//20
f 25//25 31//31 13//13
f 13//13 31//31 26//26
f 26//26 32//32 21//21
f 21//21 32//32 27//27
f 22//22 33//33 28//28
f 22//22 27//27 33//33
f 34//34 23//23 24//24
f 35//35 24//24 29//29
f 18//18 36//36 30//30
f 30//30 37//37 25//25
f 37//37 31//31 25//25
f 31//31 38//38 26//26
f 39//39 32//32 26//26
f 40//40 27//27 32//32
f 40//40 33//33 27//27
f 35//35 34//34 24//24
f 41//41 23//23 34//34
f 37//37 38//38 31//31
f 26//26 38//38 39//39
f 42//42 32//32 39//39
f 42//42 40//40 32//32
f 33//33 40//40 43//43
f 44//44 34//34 35//35
f 45//45 41//41 34//34
f 46//46 39//39 38//38
f 42//42 39//39 47//47
f 42//42 48//48 40//40
f 40//40 48//48 43//43
f 45//45 34//34 44//44
f 49//49 44//44 35//35
f 39//39 46//46 47//47
f 50//50 42//42 47//47
f 51//51 48//48 42//42
f 52//52 45//45 44//44
f 53//53 44//44 49//49
f 47//47 46//46 54//54
f 55//55 42//42 50//50
f 50//50 47//47 54//54
f 55//55 51//51 42//42
f 52//52 44//44 53//53
f 56//56 53//53 49//49
f 57//57 55//55 50//50
f 58//58 50//50 54//54
f 59//59 51//51 55//55
f 60//60 52//52 53//53
f 61//61 53//53 56//56
f 62//62 57//57 50//50
f 63//63 50//50 58//58
f 60//60 53//53 61//61
f 64//64 61//61 56//56
f 62//62 50//50 63//63
f 62//62 65//65 57//57
f 66//66 63//63 58//58
f 67//67 60//60 61//61
f 68//68 61//61 64//64
f 63//63 69//69 62//62
f 62//62 70//70 65//65
f 67//67 61//61 68//68
f 71//71 68//68 64//64
f 69//69 70//70 62//62
f 70//70 72//72 65//65
f 73//73 67//67 68//68
f 74//74 68//68 71//71
f 75//75 70//70 69//69
f 76//76 72//72 70//70
f 72//72 77//77 65//65
f 73//73 68//68 74//74
f 78//78 74//74 71//71
f 76//76 70//70 75//75
f 79//79 72//72 76//76
f 72//72 80//80 77//77
f 81//81 73//73 74//74
f 82//82 74//74 78//78
f 76//76 75//75 83//83
f 79//79 84//84 72//72
f 85//85 80//80 72//72
f 81//81 74//74 82//82
f 86//86 82//82 78//78
f 84//84 85//85 72//72
f 87//87 84//84 79//79
f 88//88 81//81 82//82
f 89//89 82//82 86//86
f 84//84 90//90 85//85
f 84//84 87//87 90//90
f 91//91 87//87 79//79
f 88//88 82//82 89//89
f 92//92 89//89 86//86
f 93//93 90//90 87//87
f 94//94 87//87 91//91
f 88//88 89//89 95//95
f 89//89 92//92 96//96
f 93//93 87//87 94//94
f 97//97 94//94 91//91
f 95//95 89//89 96//96
f 96//96 92//92 98//98
f 94//94 99//99 93//93
f 97//97 91//91 100//100
f 101//101 94//94 97//97
f 95//95 96//96 102//102
f 96//96 98//98 103//103
f 104//104 99//99 94//94
f 101//101 104//104 94//94
f 105//105 101//101 97//97
f 102//102 96//96 103//103
f 103//103 98//98 106//106
f 107//107 104//104 101//101
f 108//108 101//101 105//105
f 109//109 102//102 103//103
f 110//110 103//103 106//106
f 111//111 107//107 101//101
f 111//111 101//101 108//108
f 109//109 103//103 110//110
f 110//110 106//106 112//112
f 113//113 107//107 111//111
f 114//114 111//111 108//108
f 115//115 109//109 110//110
f 116//116 110//110 112//112
f 113//113 111//111 114//114
f 113//113 117//117 107//107
f 115//115 110//110 116//116
f 116//116 112//112 118//118
f 119//119 113//113 114//114
f 120//120 117//117 113//113
f 115//115 116//116 121//121
f 118//118 112//112 122//122
f 116//116 118//118 123//123
f 120//120 113//113 119//119
f 120//120 124//124 117//117
f 116//116 125//125 121//121
f 116//116 123//123 125//125
f 126//126 120//120 119//119
f 127//127 124//124 120//120
f 121//121 125//125 128//128
f 123//123 129//129 125//125
f 126//126 127//127 120//120
f 126//126 119//119 130//130
f 128//128 125//125 131//131
f 125//125 129//129 131//131
f 123//123 132//132 129//129
f 133//133 127//127 126//126
f 134//134 126//126 130//130
f 131//131 129//129 135//135
f 129//129 132//132 136//136
f 134//134 133//133 126//126
f 134//134 130//130 137//137
f 129//129 136//136 135//135
f 138//138 131//131 135//135
f 134//134 139//139 133//133
f 137//137 140//140 134//134
f 135//135 136//136 139//139
f 138//138 135//135 140//140
f 134//134 140//140 139//139
f 141//141 140//140 137//137
f 135//135 139//139 140//140
f 138//138 140//140 141//141

