# https://github.com/mikedh/trimesh
mtllib material.mtl

o ID59
usemtl material_0
v -33.22294335 24.94101578 5.08639770
v -32.58831725 25.03189039 5.02318123
v -32.90921101 25.49921818 4.26750160
v -27.76185032 20.07088613 15.02671999
v -27.76185032 20.07088613 15.02671999
v -27.98558050 20.05709047 14.92042736
v -32.58831725 25.03189039 5.02318123
vn -0.07249640 0.85892926 0.50693669
vn -0.07295328 0.86037017 0.50442144
vn -0.06544335 0.83601085 0.54479631
vn -0.07853137 0.87751681 0.47307196
vn 0.30359129 -0.78716282 -0.53684916
vn 0.30359129 -0.78716282 -0.53684916
vn 0.30359129 -0.78716282 -0.53684916
f 1//1 2//2 3//3
f 4//4 2//2 1//1
f 5//5 6//6 7//7

