# https://github.com/mikedh/trimesh
mtllib material.mtl

o ID27
usemtl material_0
v -15.53191715 57.29157146 16.02412799
v -18.47973223 51.11535046 17.28023793
v -18.59729601 56.91723624 16.60493767
v -19.78959362 51.06050568 18.45350712
v -15.42266938 50.80946634 16.67809251
v -20.84252951 56.87578617 17.49172799
v -10.39965985 56.23627071 16.59422339
v -16.47697518 47.69541289 17.86052044
v -9.54180291 51.78625512 17.49515092
v -14.30364911 47.36268368 17.83364193
vn -0.05125296 -0.10665414 -0.99297433
vn -0.39134822 -0.14960585 -0.90800036
vn -0.29002328 -0.15604058 -0.94421281
vn -0.59297729 -0.13009679 -0.79464002
vn -0.09132660 -0.19131196 -0.97727130
vn -0.35534340 -0.21479704 -0.90972155
vn 0.12486961 -0.13077823 -0.98351646
vn -0.11983036 -0.31670531 -0.94092424
vn 0.16264227 -0.16557307 -0.97269371
vn -0.06299767 -0.33556148 -0.93990946
f 1//1 2//2 3//3
f 2//2 4//4 3//3
f 5//5 2//2 1//1
f 3//3 4//4 6//6
f 7//7 5//5 1//1
f 5//5 8//8 2//2
f 9//9 5//5 7//7
f 10//10 8//8 5//5

